<svg xmlns="http://www.w3.org/2000/svg" viewBox="0 0 1710 540" preserveAspectRatio="xMidYMid meet" width="100%" height="100%" xmlns:xlink="http://www.w3.org/1999/xlink" version="1.1" xmlns:wb="http://www.ti.com/webench" xmlns:xs="http://www.w3.org/2001/XMLSchema">
  <defs>
    <g id="WB_CONTINUATION">
      <circle opacity="0.01" fill="#ffffff" stroke="#000000" stroke-width="0" cx="0" cy="0" r="14"/>
      <line fill="none" stroke="#cc0000" stroke-width="2" x1="0" y1="10" x2="0" y2="-10"/>
      <line fill="none" stroke="#cc0000" stroke-width="2" x1="-10" y1="-10" x2="10" y2="-10"/>
    </g>
    <g id="WB_BLOCK_IO">
      <circle opacity="0.01" fill="#ffffff" stroke="#000000" stroke-width="0" cx="0" cy="0" r="14"/>
      <line fill="none" stroke="#cc0000" stroke-width="2" x1="-5" y1="0" x2="5" y2="0"/>
    </g>
    <g id="WB_STARTUP_VOLTAGE_SOURCE">
      <circle opacity="0.01" fill="#ffffff" stroke="#000000" stroke-width="0" cx="0" cy="0" r="14"/>
      <circle fill="#cc0000" fill-opacity="0.01" stroke="#cc0000" stroke-width="2" cx="0" cy="0" r="14"/>
      <polyline fill="none" stroke="#cc0000" stroke-width="2" points="-6,-11 -6,7 5,9 5,12"/>
      <line fill="none" stroke="#cc0000" stroke-width="2" x1="16" y1="-12" x2="16" y2="-18"/>
      <line fill="none" stroke="#cc0000" stroke-width="2" x1="-17" y1="-12" x2="-17" y2="-18"/>
      <line fill="none" stroke="#cc0000" stroke-width="2" x1="-14" y1="-15" x2="-20" y2="-15"/>
      <line fill="none" stroke="#cc0000" stroke-width="2" x1="-15" y1="0" x2="-30" y2="0"/>
      <line fill="none" stroke="#cc0000" stroke-width="2" x1="30" y1="0" x2="15" y2="0"/>
    </g>
    <g id="WB_SOURCE_RESISTOR">
      <circle opacity="0.01" fill="#ffffff" stroke="#000000" stroke-width="0" cx="0" cy="0" r="14"/>
      <polyline fill="none" stroke="#cc0000" stroke-linecap="round" stroke-linejoin="round" stroke-width="2" points="30,0 20,0 15,-6 7.5,6 0,-6 -7.5,6 -15,-6 -20,0 -30,0"/>
    </g>
    <g id="WB_PRIM_STARTUP_VOLTAGE_SOURCE">
      <circle opacity="0.01" fill="#ffffff" stroke="#000000" stroke-width="0" cx="0" cy="0" r="14"/>
      <circle fill="#cc0000" fill-opacity="0.01" stroke="#cc0000" stroke-width="2" cx="0" cy="0" r="14"/>
      <polyline fill="none" stroke="#cc0000" stroke-width="2" points="-6,-11 -6,7 5,9 5,12"/>
      <line fill="none" stroke="#cc0000" stroke-width="2" x1="16" y1="-12" x2="16" y2="-18"/>
      <line fill="none" stroke="#cc0000" stroke-width="2" x1="-17" y1="-12" x2="-17" y2="-18"/>
      <line fill="none" stroke="#cc0000" stroke-width="2" x1="-14" y1="-15" x2="-20" y2="-15"/>
      <line fill="none" stroke="#cc0000" stroke-width="2" x1="-15" y1="0" x2="-30" y2="0"/>
      <line fill="none" stroke="#cc0000" stroke-width="2" x1="30" y1="0" x2="15" y2="0"/>
    </g>
    <g id="WB_CURRENT_PROBE">
      <circle opacity="0.01" fill="#ffffff" stroke="#000000" stroke-width="0" cx="0" cy="0" r="14"/>
      <line stroke="#cc0000" stroke-linecap="square" stroke-linejoin="round" stroke-width="2" x1="-16" y1="0" x2="-10" y2="0"/>
      <polyline stroke="#cc0000" stroke-linecap="square" stroke-linejoin="round" stroke-width="2" points="6,0 3,-3.5 3,3.5 6,0 -6,0"/>
      <line stroke="#cc0000" stroke-linecap="square" stroke-linejoin="round" stroke-width="2" x1="10" y1="0" x2="16" y2="0"/>
      <rect fill="none" stroke="#cc0000" stroke-width="1" x="-9.5" y="-7" width="19" height="14"/>
    </g>
    <g id="WB_PWL_CURRENT_LOAD">
      <circle opacity="0.01" fill="#ffffff" stroke="#000000" stroke-width="0" cx="0" cy="0" r="14"/>
      <circle fill="#cc0000" fill-opacity="0.01" stroke="#cc0000" stroke-width="2" cx="0" cy="0" r="14"/>
      <line fill="none" stroke="#cc0000" stroke-width="2" x1="-30" y1="0" x2="-20" y2="0"/>
      <line fill="none" stroke="#cc0000" stroke-width="2" x1="30" y1="0" x2="20" y2="0"/>
      <polyline fill="none" stroke="#cc0000" stroke-linecap="round" stroke-linejoin="round" stroke-width="2" points="-7,6 4,8"/>
      <polyline fill="none" stroke="#cc0000" stroke-linecap="round" stroke-linejoin="round" stroke-width="2" points="-7,-6 4,-8"/>
      <polyline fill="none" stroke="#cc0000" stroke-linecap="round" stroke-linejoin="round" stroke-width="2" points="-20,0 -15,0"/>
      <polyline fill="none" stroke="#cc0000" stroke-linecap="round" stroke-linejoin="round" stroke-width="2" points="20,0 15,0"/>
      <polyline fill="none" stroke="#cc0000" stroke-linecap="round" stroke-linejoin="round" stroke-width="2" points="-7,-6 -7,6"/>
      <polyline fill="none" stroke="#cc0000" stroke-linecap="round" stroke-linejoin="round" stroke-width="2" points="4,-8 4,-11"/>
      <polyline fill="none" stroke="#cc0000" stroke-linecap="round" stroke-linejoin="round" stroke-width="2" points="4,8 4,11"/>
      <line fill="none" stroke="#cc0000" stroke-linecap="round" stroke-width="2" x1="23" y1="-13" x2="23" y2="-7"/>
      <line fill="none" stroke="#cc0000" stroke-linecap="round" stroke-width="2" x1="-23" y1="-13" x2="-23" y2="-7"/>
      <line fill="none" stroke="#cc0000" stroke-linecap="round" stroke-width="2" x1="-26" y1="-10" x2="-20" y2="-10"/>
    </g>
    <g id="WB_ZERO_VOLT_SOURCE">
      <circle opacity="0.01" fill="#ffffff" stroke="#000000" stroke-width="0" cx="0" cy="0" r="14"/>
      <line fill="none" stroke="#cc0000" stroke-width="2" x1="-5" y1="0" x2="5" y2="0"/>
    </g>
    <g id="WB_RESISTOR">
      <circle opacity="0.01" fill="#ffffff" stroke="#000000" stroke-width="0" cx="0" cy="0" r="14"/>
      <polyline fill="none" stroke="#115566" stroke-linecap="round" stroke-linejoin="round" stroke-width="2" points="30,0 20,0 15,-6 7.5,6 0,-6 -7.5,6 -15,-6 -20,0 -30,0"/>
    </g>
    <g id="WB_CURRENT_LOAD">
      <circle opacity="0.01" fill="#ffffff" stroke="#000000" stroke-width="0" cx="0" cy="0" r="14"/>
      <path fill="none" stroke="#cc0000" stroke-linecap="round" stroke-linejoin="round" stroke-width="2" d="M -15 0 c 0.1 4.2 1.6 7.7 4.4 10.6 c 2.8 2.8 6.4 4.3 10.6 4.4 c 4.3 -0.1 7.8 -1.6 10.6 -4.4 c 2.9 -2.9 4.3 -6.4 4.4 -10.6"/>
      <path fill="none" stroke="#cc0000" stroke-linecap="round" stroke-linejoin="round" stroke-width="2" d="M 15 0 c -0.1 -4.2 -1.6 -7.7 -4.4 -10.6 c -2.8 -2.8 -6.4 -4.3 -10.6 -4.4 c -4.3 0.1 -7.8 1.6 -10.6 4.4 c -2.9 2.9 -4.3 6.4 -4.4 10.6"/>
      <line fill="none" stroke="#cc0000" stroke-width="2" x1="30" y1="0" x2="15" y2="0"/>
      <line fill="none" stroke="#cc0000" stroke-width="2" x1="-15" y1="0" x2="-30" y2="0"/>
      <line fill="none" stroke="#cc0000" stroke-linecap="round" stroke-linejoin="round" stroke-width="2" x1="3" y1="7" x2="12" y2="0"/>
      <line fill="none" stroke="#cc0000" stroke-linecap="round" stroke-linejoin="round" stroke-width="2" x1="3" y1="-7" x2="12" y2="0"/>
      <line fill="none" stroke="#cc0000" stroke-linecap="round" stroke-linejoin="round" stroke-width="2" x1="12" y1="0" x2="-12" y2="0"/>
    </g>
    <g id="WB_VOLTAGE_PROBE">
      <circle opacity="0.01" fill="#ffffff" stroke="#000000" stroke-width="0" cx="0" cy="0" r="14"/>
      <rect fill="#cc0000" fill-opacity="0.01" stroke="#cc0000" stroke-width="1" x="-10" y="-30" width="20" height="19.5"/>
      <polyline fill="none" stroke="#cc0000" stroke-linecap="round" stroke-linejoin="round" stroke-width="2" points="7,-27 4,-22 3,-26 0,-18 -1,-22 -5,-14"/>
      <line fill="none" stroke="#cc0000" stroke-width="2" x1="0" y1="0" x2="0" y2="-10"/>
    </g>
    <g id="WB_LOAD_RESISTOR">
      <circle opacity="0.01" fill="#ffffff" stroke="#000000" stroke-width="0" cx="0" cy="0" r="14"/>
      <polyline fill="none" stroke="#cc0000" stroke-linecap="round" stroke-linejoin="round" stroke-width="2" points="30,0 20,0 15,-6 7.5,6 0,-6 -7.5,6 -15,-6 -20,0 -30,0"/>
    </g>
    <g id="WB_PWL_VOLTAGE_SOURCE">
      <circle opacity="0.01" fill="#ffffff" stroke="#000000" stroke-width="0" cx="0" cy="0" r="14"/>
      <circle fill="#cc0000" fill-opacity="0.01" stroke="#cc0000" stroke-width="2" cx="0" cy="0" r="14"/>
      <line fill="none" stroke="#cc0000" stroke-width="2" x1="-30" y1="0" x2="-20" y2="0"/>
      <line fill="none" stroke="#cc0000" stroke-width="2" x1="30" y1="0" x2="20" y2="0"/>
      <polyline fill="none" stroke="#cc0000" stroke-linecap="round" stroke-linejoin="round" stroke-width="2" points="-7,6 4,8"/>
      <polyline fill="none" stroke="#cc0000" stroke-linecap="round" stroke-linejoin="round" stroke-width="2" points="-7,-6 4,-8"/>
      <polyline fill="none" stroke="#cc0000" stroke-linecap="round" stroke-linejoin="round" stroke-width="2" points="-20,0 -15,0"/>
      <polyline fill="none" stroke="#cc0000" stroke-linecap="round" stroke-linejoin="round" stroke-width="2" points="20,0 15,0"/>
      <polyline fill="none" stroke="#cc0000" stroke-linecap="round" stroke-linejoin="round" stroke-width="2" points="-7,-6 -7,6"/>
      <polyline fill="none" stroke="#cc0000" stroke-linecap="round" stroke-linejoin="round" stroke-width="2" points="4,-8 4,-11"/>
      <polyline fill="none" stroke="#cc0000" stroke-linecap="round" stroke-linejoin="round" stroke-width="2" points="4,8 4,11"/>
      <line fill="none" stroke="#cc0000" stroke-linecap="round" stroke-width="2" x1="23" y1="-13" x2="23" y2="-7"/>
      <line fill="none" stroke="#cc0000" stroke-linecap="round" stroke-width="2" x1="-23" y1="-13" x2="-23" y2="-7"/>
      <line fill="none" stroke="#cc0000" stroke-linecap="round" stroke-width="2" x1="-26" y1="-10" x2="-20" y2="-10"/>
    </g>
    <g id="WB_PRIM_PWL_VOLTAGE_SOURCE">
      <circle opacity="0.01" fill="#ffffff" stroke="#000000" stroke-width="0" cx="0" cy="0" r="14"/>
      <circle fill="#cc0000" fill-opacity="0.01" stroke="#cc0000" stroke-width="2" cx="0" cy="0" r="14"/>
      <line fill="none" stroke="#cc0000" stroke-width="2" x1="-30" y1="0" x2="-15" y2="0"/>
      <line fill="none" stroke="#cc0000" stroke-width="2" x1="30" y1="0" x2="15" y2="0"/>
      <polyline fill="none" stroke="#cc0000" stroke-linecap="round" stroke-linejoin="round" stroke-width="2" points="0,13 0,8 -7,6 -7,0 7,-4 0,-8 0,-13"/>
      <line fill="none" stroke="#cc0000" stroke-linecap="round" stroke-width="2" x1="23" y1="-13" x2="23" y2="-7"/>
      <line fill="none" stroke="#cc0000" stroke-linecap="round" stroke-width="2" x1="-23" y1="-13" x2="-23" y2="-7"/>
      <line fill="none" stroke="#cc0000" stroke-linecap="round" stroke-width="2" x1="-26" y1="-10" x2="-20" y2="-10"/>
    </g>
    <g id="WB_CAPACITOR">
      <circle opacity="0.01" fill="#ffffff" stroke="#000000" stroke-width="0" cx="0" cy="0" r="14"/>
      <line fill="none" stroke="#115566" stroke-width="2" x1="30" y1="0" x2="20" y2="0"/>
      <line fill="none" stroke="#115566" stroke-width="2" x1="-30" y1="0" x2="-20" y2="0"/>
      <polyline fill="none" stroke="#115566" stroke-linecap="round" stroke-linejoin="round" stroke-width="2" points="3,12 3,-12"/>
      <polyline fill="none" stroke="#115566" stroke-linecap="round" stroke-linejoin="round" stroke-width="2" points="-20,0 -3,0"/>
      <polyline fill="none" stroke="#115566" stroke-linecap="round" stroke-linejoin="round" stroke-width="2" points="3,0 20,0"/>
      <polyline fill="none" stroke="#115566" stroke-linecap="round" stroke-linejoin="round" stroke-width="2" points="-3,12 -3,-12"/>
    </g>
    <g id="WB_INDUCTOR">
      <circle opacity="0.01" fill="#ffffff" stroke="#000000" stroke-width="0" cx="0" cy="0" r="14"/>
      <path fill="none" stroke="#115566" stroke-linecap="round" stroke-linejoin="round" stroke-width="2" d="M -10 0 c 0 -0.6 -0.2 -1.8 -0.6 -3.3 c -0.5 -2.4 -2 -3.7 -4.4 -4 c -2.4 0.3 -3.8 1.6 -4.3 4 c -0.6 2.3 -0.8 3.6 -0.7 3 M -20 0 H -30"/>
      <path fill="none" stroke="#115566" stroke-linecap="round" stroke-linejoin="round" stroke-width="2" d="M 0 0 c 0 -0.6 -0.2 -1.8 -0.6 -3.3 c -0.5 -2.4 -2 -3.7 -4.4 -4 c -2.4 0.3 -3.8 1.6 -4.3 4 c -0.6 2.3 -0.8 3.6 -0.7 4"/>
      <path fill="none" stroke="#115566" stroke-linecap="round" stroke-linejoin="round" stroke-width="2" d="M 10 0 c 0 -0.6 -0.2 -1.8 -0.6 -3.3 c -0.5 -2.4 -2 -3.7 -4.4 -4 c -2.4 0.3 -3.8 1.6 -4.3 4 c -0.6 2.3 -0.8 3.6 -0.7 4"/>
      <path fill="none" stroke="#115566" stroke-linecap="round" stroke-linejoin="round" stroke-width="2" d="M 30 0 H 20 c 0 -0.6 -0.2 -1.8 -0.6 -3.3 c -0.5 -2.4 -2 -3.7 -4.4 -4 c -2.4 0.3 -3.8 1.6 -4.3 4 c -0.6 2.3 -0.8 3.6 -0.7 4"/>
      <path fill="none" stroke="#115566" stroke-linecap="round" stroke-linejoin="round" stroke-width="2" d="M 10 0 c 0.1 0.4 0.1 0.6 0 0.7"/>
      <path fill="none" stroke="#115566" stroke-linecap="round" stroke-linejoin="round" stroke-width="2" d="M 0 0 c 0.1 0.4 0.1 0.6 0 0.7"/>
      <path fill="none" stroke="#115566" stroke-linecap="round" stroke-linejoin="round" stroke-width="2" d="M -10 0 c 0.1 0.4 0.1 0.6 0 0.7"/>
    </g>
    <g id="WB_LMR33630CRNX">
      <circle opacity="0.01" fill="#ffffff" stroke="#000000" stroke-width="0" cx="0" cy="0" r="14"/>
      <line fill="none" stroke="#000000" stroke-linecap="round" stroke-linejoin="round" stroke-width="2" x1="-60" y1="80" x2="60" y2="80"/>
      <line fill="none" stroke="#000000" stroke-linecap="round" stroke-linejoin="round" stroke-width="2" x1="60" y1="80" x2="60" y2="-80"/>
      <line fill="none" stroke="#000000" stroke-linecap="round" stroke-linejoin="round" stroke-width="2" x1="60" y1="-80" x2="-60" y2="-80"/>
      <line fill="none" stroke="#000000" stroke-linecap="round" stroke-linejoin="round" stroke-width="2" x1="-60" y1="-80" x2="-60" y2="80"/>
      <text id="partNumber_label" style="font-family:arial;font-weight:bold;font-size:12px;text-anchor:middle;" x="0" y="-67">LMR33630CRNX</text>
      <line fill="none" stroke="#000000" stroke-linecap="round" stroke-linejoin="round" stroke-width="2" x1="-80" y1="-10" x2="-60" y2="-10"/>
      <text id="1" style="font-family:arial;font-weight:normal;font-size:9px;text-anchor:start;" transform="rotate(0 -56 -6)" x="-56" y="-6">PGND</text>
      <line fill="none" stroke="#000000" stroke-linecap="round" stroke-linejoin="round" stroke-width="2" x1="-80" y1="-50" x2="-60" y2="-50"/>
      <text id="2" style="font-family:arial;font-weight:normal;font-size:9px;text-anchor:start;" transform="rotate(0 -56 -46)" x="-56" y="-46">VIN</text>
      <line fill="none" stroke="#000000" stroke-linecap="round" stroke-linejoin="round" stroke-width="2" x1="80" y1="-20" x2="60" y2="-20"/>
      <text id="3" style="font-family:arial;font-weight:normal;font-size:9px;text-anchor:end;" transform="rotate(0 56 -16)" x="56" y="-16">NC</text>
      <line fill="none" stroke="#000000" stroke-linecap="round" stroke-linejoin="round" stroke-width="2" x1="80" y1="-60" x2="60" y2="-60"/>
      <text id="4" style="font-family:arial;font-weight:normal;font-size:9px;text-anchor:end;" transform="rotate(0 56 -56)" x="56" y="-56">BST</text>
      <line fill="none" stroke="#000000" stroke-linecap="round" stroke-linejoin="round" stroke-width="2" x1="-80" y1="20" x2="-60" y2="20"/>
      <text id="5" style="font-family:arial;font-weight:normal;font-size:9px;text-anchor:start;" transform="rotate(0 -56 24)" x="-56" y="24">VCC</text>
      <line fill="none" stroke="#000000" stroke-linecap="round" stroke-linejoin="round" stroke-width="2" x1="80" y1="60" x2="60" y2="60"/>
      <text id="6" style="font-family:arial;font-weight:normal;font-size:9px;text-anchor:end;" transform="rotate(0 56 64)" x="56" y="64">AGND</text>
      <line fill="none" stroke="#000000" stroke-linecap="round" stroke-linejoin="round" stroke-width="2" x1="80" y1="20" x2="60" y2="20"/>
      <text id="7" style="font-family:arial;font-weight:normal;font-size:9px;text-anchor:end;" transform="rotate(0 56 24)" x="56" y="24">FB</text>
      <line fill="none" stroke="#000000" stroke-linecap="round" stroke-linejoin="round" stroke-width="2" x1="80" y1="0" x2="60" y2="0"/>
      <text id="8" style="font-family:arial;font-weight:normal;font-size:9px;text-anchor:end;" transform="rotate(0 56 4)" x="56" y="4">PG</text>
      <line fill="none" stroke="#000000" stroke-linecap="round" stroke-linejoin="round" stroke-width="2" x1="-80" y1="-30" x2="-60" y2="-30"/>
      <text id="9" style="font-family:arial;font-weight:normal;font-size:9px;text-anchor:start;" transform="rotate(0 -56 -26)" x="-56" y="-26">EN</text>
      <line fill="none" stroke="#000000" stroke-linecap="round" stroke-linejoin="round" stroke-width="2" x1="-80" y1="-60" x2="-60" y2="-60"/>
      <text id="10" style="font-family:arial;font-weight:normal;font-size:9px;text-anchor:start;" transform="rotate(0 -56 -56)" x="-56" y="-56">VIN</text>
      <line fill="none" stroke="#000000" stroke-linecap="round" stroke-linejoin="round" stroke-width="2" x1="-80" y1="0" x2="-60" y2="0"/>
      <text id="11" style="font-family:arial;font-weight:normal;font-size:9px;text-anchor:start;" transform="rotate(0 -56 4)" x="-56" y="4">PGND</text>
      <line fill="none" stroke="#000000" stroke-linecap="round" stroke-linejoin="round" stroke-width="2" x1="80" y1="-30" x2="60" y2="-30"/>
      <text id="12" style="font-family:arial;font-weight:normal;font-size:9px;text-anchor:end;" transform="rotate(0 56 -26)" x="56" y="-26">SW</text>
    </g>
    <g id="WB_GND">
      <circle opacity="0.01" fill="#ffffff" stroke="#000000" stroke-width="0" cx="0" cy="0" r="14"/>
      <line fill="none" stroke="black" stroke-width="2" x1="0" y1="-10" x2="0" y2="0"/>
      <line fill="none" stroke="black" stroke-width="2" x1="-13" y1="0" x2="13" y2="0"/>
      <line fill="none" stroke="black" stroke-width="2" x1="-9" y1="4" x2="9" y2="4"/>
      <line fill="none" stroke="black" stroke-width="2" x1="-3" y1="8" x2="3" y2="8"/>
    </g>
    <g id="WB_CAP_OUTPUT">
      <circle opacity="0.01" fill="#ffffff" stroke="#000000" stroke-width="0" cx="0" cy="0" r="14"/>
      <path fill="none" stroke="#cc0000" stroke-linecap="round" stroke-linejoin="round" stroke-width="2" d="M -6.5 12 c 0.2 0 1.1 -1 2.5 -3 c 1.5 -2 2.3 -5 2.5 -9 c -0.2 -4 -1 -7 -2.5 -9 c -1.4 -2 -2.3 -3 -2.5 -3"/>
      <line fill="none" stroke="#cc0000" stroke-width="2" x1="4" y1="13" x2="4" y2="-13"/>
      <line fill="none" stroke="#cc0000" stroke-width="2" x1="-30" y1="0" x2="-2" y2="0"/>
      <line fill="none" stroke="#cc0000" stroke-width="2" x1="4" y1="0" x2="30" y2="0"/>
      <line fill="none" stroke="#cc0000" stroke-width="2" x1="14" y1="10" x2="14" y2="6"/>
      <line fill="none" stroke="#cc0000" stroke-width="2" x1="12" y1="8" x2="16" y2="8"/>
    </g>
    <g id="WB_PRIMITIVE_BATTERY">
      <circle opacity="0.01" fill="#ffffff" stroke="#000000" stroke-width="0" cx="0" cy="0" r="14"/>
      <line fill="none" stroke="#cc0000" stroke-width="2" x1="-8" y1="0" x2="-30" y2="0"/>
      <line fill="none" stroke="#cc0000" stroke-width="2" x1="-7" y1="12" x2="-7" y2="-12"/>
      <line fill="none" stroke="#cc0000" stroke-width="2" x1="4" y1="12" x2="4" y2="-12"/>
      <line fill="none" stroke="#cc0000" stroke-width="2" x1="30" y1="0" x2="11" y2="0"/>
      <line fill="none" stroke="#cc0000" stroke-width="2" x1="-2" y1="5" x2="-2" y2="-5"/>
      <line fill="none" stroke="#cc0000" stroke-width="2" x1="-1" y1="5" x2="-1" y2="-5"/>
      <line fill="none" stroke="#cc0000" stroke-width="2" x1="-14" y1="-9" x2="-14" y2="-15"/>
      <line fill="none" stroke="#cc0000" stroke-width="2" x1="-11" y1="-12" x2="-17" y2="-12"/>
      <line fill="none" stroke="#cc0000" stroke-width="2" x1="13" y1="-10" x2="13" y2="-15"/>
      <line fill="none" stroke="#cc0000" stroke-width="2" x1="10" y1="5" x2="10" y2="-5"/>
      <line fill="none" stroke="#cc0000" stroke-width="2" x1="9" y1="5" x2="9" y2="-5"/>
    </g>
    <g id="WB_BATTERY">
      <circle opacity="0.01" fill="#ffffff" stroke="#000000" stroke-width="0" cx="0" cy="0" r="14"/>
      <line fill="none" stroke="#cc0000" stroke-width="2" x1="-8" y1="0" x2="-30" y2="0"/>
      <line fill="none" stroke="#cc0000" stroke-width="2" x1="-7" y1="12" x2="-7" y2="-12"/>
      <line fill="none" stroke="#cc0000" stroke-width="2" x1="4" y1="12" x2="4" y2="-12"/>
      <line fill="none" stroke="#cc0000" stroke-width="2" x1="30" y1="0" x2="11" y2="0"/>
      <line fill="none" stroke="#cc0000" stroke-width="2" x1="-2" y1="5" x2="-2" y2="-5"/>
      <line fill="none" stroke="#cc0000" stroke-width="2" x1="-1" y1="5" x2="-1" y2="-5"/>
      <line fill="none" stroke="#cc0000" stroke-width="2" x1="-14" y1="-9" x2="-14" y2="-15"/>
      <line fill="none" stroke="#cc0000" stroke-width="2" x1="-11" y1="-12" x2="-17" y2="-12"/>
      <line fill="none" stroke="#cc0000" stroke-width="2" x1="13" y1="-10" x2="13" y2="-15"/>
      <line fill="none" stroke="#cc0000" stroke-width="2" x1="10" y1="5" x2="10" y2="-5"/>
      <line fill="none" stroke="#cc0000" stroke-width="2" x1="9" y1="5" x2="9" y2="-5"/>
    </g>
  </defs>
  <use class="comp hovered" id="Cinx" transform="rotate(-90 320 305)" x="320" y="305" xlink:href="#WB_CAPACITOR" manufacturer="MuRata" esr="1mOhm" thermalid="0603" partno="GRM188R72A104KA35D" cap="100nF"/>
  <text style="font-family:arial;font-size:13px;stroke-width:0.5;stroke:#115566;fill:#115566;" x="335" y="305" for="Cinx">Cinx</text>
  <text style="font-family:arial;font-size:10px;stroke-width:0.1;stroke:#CC0000;fill:#CC0000;" x="335" y="315" for="Cinx">100nF</text>
  <text style="font-family:arial;font-size:10px;stroke-width:0.1;stroke:#CC0000;fill:#CC0000;" x="335" y="325" for="Cinx">1mOhm</text>
  <use class="comp hovered" id="Cinx_ch1" transform="rotate(-90 400 305)" x="400" y="305" xlink:href="#WB_CAPACITOR" manufacturer="MuRata" esr="1mOhm" thermalid="0603" partno="GRM188R72A104KA35D" cap="100nF"/>
  <text style="font-family:arial;font-size:13px;stroke-width:0.5;stroke:#115566;fill:#115566;" x="415" y="305" for="Cinx_ch1">Cinx_ch1</text>
  <text style="font-family:arial;font-size:10px;stroke-width:0.1;stroke:#CC0000;fill:#CC0000;" x="415" y="315" for="Cinx_ch1">100nF</text>
  <text style="font-family:arial;font-size:10px;stroke-width:0.1;stroke:#CC0000;fill:#CC0000;" x="415" y="325" for="Cinx_ch1">1mOhm</text>
  <use class="comp hovered" id="Cboot" transform="rotate(-90 925 160)" x="925" y="160" xlink:href="#WB_CAPACITOR" manufacturer="MuRata" esr="1mOhm" thermalid="0402" partno="GRM155R71C104KA88D" cap="100nF"/>
  <text style="font-family:arial;font-size:13px;stroke-width:0.5;stroke:#115566;fill:#115566;" x="940" y="160" for="Cboot">Cboot</text>
  <text style="font-family:arial;font-size:10px;stroke-width:0.1;stroke:#CC0000;fill:#CC0000;" x="940" y="170" for="Cboot">100nF</text>
  <text style="font-family:arial;font-size:10px;stroke-width:0.1;stroke:#CC0000;fill:#CC0000;" x="940" y="180" for="Cboot">1mOhm</text>
  <use class="comp hovered" id="Rfbt" transform="rotate(-90 1200 250)" x="1200" y="250" xlink:href="#WB_RESISTOR" manufacturer="Vishay-Dale" thermalid="0402" partno="CRCW0402100KFKED" resistance="100kOhm"/>
  <text style="font-family:arial;font-size:13px;stroke-width:0.5;stroke:#115566;fill:#115566;" x="1215" y="250" for="Rfbt">Rfbt</text>
  <text style="font-family:arial;font-size:10px;stroke-width:0.1;stroke:#CC0000;fill:#CC0000;" x="1215" y="260" for="Rfbt">100kOhm</text>
  <use class="comp hovered" id="Rfbb" transform="rotate(-90 1200 350)" x="1200" y="350" xlink:href="#WB_RESISTOR" manufacturer="Vishay-Dale" thermalid="0402" partno="CRCW040224K9FKED" resistance="24.9kOhm"/>
  <text style="font-family:arial;font-size:13px;stroke-width:0.5;stroke:#115566;fill:#115566;" x="1215" y="350" for="Rfbb">Rfbb</text>
  <text style="font-family:arial;font-size:10px;stroke-width:0.1;stroke:#CC0000;fill:#CC0000;" x="1215" y="360" for="Rfbb">24.9kOhm</text>
  <use class="comp hovered" id="L1" x="1075" y="210" xlink:href="#WB_INDUCTOR" manufacturer="TDK" thermalid="VLP8040" partno="VLP8040T-2R2N" dcr="15mOhm" l="2.2uH"/>
  <text style="font-family:arial;font-size:13px;stroke-width:0.5;stroke:#115566;fill:#115566;" x="1055" y="195" for="L1">L1</text>
  <text style="font-family:arial;font-size:10px;stroke-width:0.1;stroke:#CC0000;fill:#CC0000;" x="1055" y="230" for="L1">2.2uH</text>
  <text style="font-family:arial;font-size:10px;stroke-width:0.1;stroke:#CC0000;fill:#CC0000;" x="1055" y="240" for="L1">15mOhm</text>
  <use class="comp hovered" id="Cin" transform="rotate(-90 155 305)" x="155" y="305" xlink:href="#WB_CAPACITOR" manufacturer="MuRata" esr="3mOhm" thermalid="1206" partno="GRM31CR71H475KA12L" cap="4.7uF"/>
  <text style="font-family:arial;font-size:13px;stroke-width:0.5;stroke:#115566;fill:#115566;" x="170" y="305" for="Cin">Cin</text>
  <text style="font-family:arial;font-size:10px;stroke-width:0.1;stroke:#CC0000;fill:#CC0000;" x="170" y="315" for="Cin">4.7uF</text>
  <text style="font-family:arial;font-size:10px;stroke-width:0.1;stroke:#CC0000;fill:#CC0000;" x="170" y="325" for="Cin">3mOhm</text>
  <use class="comp hovered" id="U1" x="735" y="240" xlink:href="#WB_LMR33630CRNX"/>
  <text style="font-family:arial;font-size:13px;stroke-width:0.5;stroke:#115566;fill:#115566;" x="715" y="240" for="U1">U1</text>
  <use class="comp hovered" id="Coutx" transform="rotate(-90 1375 315)" x="1375" y="315" xlink:href="#WB_CAPACITOR" manufacturer="MuRata" esr="30mOhm" thermalid="0603" partno="GRM188R71E104KA01D" cap="100nF"/>
  <text style="font-family:arial;font-size:13px;stroke-width:0.5;stroke:#115566;fill:#115566;" x="1390" y="315" for="Coutx">Coutx</text>
  <text style="font-family:arial;font-size:10px;stroke-width:0.1;stroke:#CC0000;fill:#CC0000;" x="1390" y="325" for="Coutx">100nF</text>
  <text style="font-family:arial;font-size:10px;stroke-width:0.1;stroke:#CC0000;fill:#CC0000;" x="1390" y="335" for="Coutx">30mOhm</text>
  <use class="other" id="GND" x="725" y="440" xlink:href="#WB_GND"/>
  <use class="comp hovered" id="Cvcc" transform="rotate(-90 645 365)" x="645" y="365" xlink:href="#WB_CAPACITOR" manufacturer="Kemet" esr="1mOhm" thermalid="0603" partno="C0603C105K8PACTU" cap="1uF"/>
  <text style="font-family:arial;font-size:13px;stroke-width:0.5;stroke:#115566;fill:#115566;" x="660" y="365" for="Cvcc">Cvcc</text>
  <text style="font-family:arial;font-size:10px;stroke-width:0.1;stroke:#CC0000;fill:#CC0000;" x="660" y="375" for="Cvcc">1uF</text>
  <text style="font-family:arial;font-size:10px;stroke-width:0.1;stroke:#CC0000;fill:#CC0000;" x="660" y="385" for="Cvcc">1mOhm</text>
  <use class="comp hovered" id="Rpg" x="905" y="240" xlink:href="#WB_RESISTOR" manufacturer="Vishay-Dale" thermalid="0402" partno="CRCW0402100KFKED" resistance="100kOhm"/>
  <text style="font-family:arial;font-size:13px;stroke-width:0.5;stroke:#115566;fill:#115566;" x="885" y="225" for="Rpg">Rpg</text>
  <text style="font-family:arial;font-size:10px;stroke-width:0.1;stroke:#CC0000;fill:#CC0000;" x="885" y="260" for="Rpg">100kOhm</text>
  <use class="comp hovered" id="Cin_ch1" transform="rotate(-90 235 300)" x="235" y="300" xlink:href="#WB_CAPACITOR" manufacturer="MuRata" esr="3mOhm" thermalid="1206" partno="GRM31CR71H475KA12L" cap="4.7uF"/>
  <text style="font-family:arial;font-size:13px;stroke-width:0.5;stroke:#115566;fill:#115566;" x="250" y="300" for="Cin_ch1">Cin_ch1</text>
  <text style="font-family:arial;font-size:10px;stroke-width:0.1;stroke:#CC0000;fill:#CC0000;" x="250" y="310" for="Cin_ch1">4.7uF</text>
  <text style="font-family:arial;font-size:10px;stroke-width:0.1;stroke:#CC0000;fill:#CC0000;" x="250" y="320" for="Cin_ch1">3mOhm</text>
  <use class="comp hovered" id="Cff" transform="rotate(-90 1110 270)" x="1110" y="270" xlink:href="#WB_CAPACITOR" manufacturer="MuRata" esr="1mOhm" thermalid="0402" partno="GRM1555C1H7R5CA01D" cap="7.5pF"/>
  <text style="font-family:arial;font-size:13px;stroke-width:0.5;stroke:#115566;fill:#115566;" x="1125" y="270" for="Cff">Cff</text>
  <text style="font-family:arial;font-size:10px;stroke-width:0.1;stroke:#CC0000;fill:#CC0000;" x="1125" y="280" for="Cff">7.5pF</text>
  <text style="font-family:arial;font-size:10px;stroke-width:0.1;stroke:#CC0000;fill:#CC0000;" x="1125" y="290" for="Cff">1mOhm</text>
  <use class="comp hovered" id="Cout" transform="rotate(-90 1295 315)" x="1295" y="315" xlink:href="#WB_CAPACITOR" manufacturer="Kemet" esr="3mOhm" thermalid="0805" partno="C0805C106K8PACTU" cap="10uF"/>
  <text style="font-family:arial;font-size:13px;stroke-width:0.5;stroke:#115566;fill:#115566;" x="1310" y="315" for="Cout">Cout</text>
  <text style="font-family:arial;font-size:10px;stroke-width:0.1;stroke:#CC0000;fill:#CC0000;" x="1310" y="325" for="Cout">10uF</text>
  <text style="font-family:arial;font-size:10px;stroke-width:0.1;stroke:#CC0000;fill:#CC0000;" x="1310" y="335" for="Cout">3mOhm</text>
  <text style="font-family:arial;font-size:10px;stroke-width:0.1;stroke:#CC0000;fill:#CC0000;" x="1310" y="345" for="Cout">Qty=2</text>
  <use class="other" id="Iout" transform="rotate(-270 1595 350)" x="1595" y="350" xlink:href="#WB_CURRENT_LOAD"/>
  <text style="font-family:arial;font-size:13px;stroke-width:0.5;stroke:#CC0000;fill:#CC0000;" x="1610" y="350" for="Iout">Iout</text>
  <use class="other" id="Vin" transform="rotate(-270 100 280)" x="100" y="280" xlink:href="#WB_BATTERY"/>
  <text style="font-family:arial;font-size:13px;stroke-width:0.5;stroke:#CC0000;fill:#CC0000;" x="115" y="280" for="Vin">Vin</text>
  <line fill="none" stroke="#000000" stroke-width="2" x1="1200" y1="320" x2="1200" y2="280"/>
  <line fill="none" stroke="#000000" stroke-width="2" x1="1200" y1="220" x2="1200" y2="210"/>
  <line fill="none" stroke="#000000" stroke-width="2" x1="1200" y1="430" x2="1200" y2="380"/>
  <line fill="none" stroke="#000000" stroke-width="2" x1="935" y1="240" x2="955" y2="240"/>
  <line fill="none" stroke="#000000" stroke-width="2" x1="955" y1="240" x2="955" y2="330"/>
  <line fill="none" stroke="#000000" stroke-width="2" x1="815" y1="240" x2="875" y2="240"/>
  <line fill="none" stroke="#000000" stroke-width="2" x1="645" y1="330" x2="955" y2="330"/>
  <line fill="none" stroke="#000000" stroke-width="2" x1="1110" y1="310" x2="1110" y2="300"/>
  <line fill="none" stroke="#000000" stroke-width="2" x1="1110" y1="240" x2="1110" y2="210"/>
  <line fill="none" stroke="#000000" stroke-width="2" x1="640" y1="210" x2="665" y2="210"/>
  <line fill="none" stroke="#000000" stroke-width="2" x1="640" y1="210" x2="640" y2="180"/>
  <line fill="none" stroke="#000000" stroke-width="2" x1="320" y1="180" x2="320" y2="275"/>
  <line fill="none" stroke="#000000" stroke-width="2" x1="815" y1="210" x2="815" y2="220"/>
  <line fill="none" stroke="#000000" stroke-width="2" x1="815" y1="300" x2="815" y2="430"/>
  <line fill="none" stroke="#000000" stroke-width="2" x1="925" y1="130" x2="925" y2="110"/>
  <line fill="none" stroke="#000000" stroke-width="2" x1="320" y1="335" x2="320" y2="430"/>
  <line fill="none" stroke="#000000" stroke-width="2" x1="1375" y1="210" x2="1375" y2="285"/>
  <line fill="none" stroke="#000000" stroke-width="2" x1="615" y1="230" x2="615" y2="430"/>
  <line fill="none" stroke="#000000" stroke-width="2" x1="925" y1="110" x2="815" y2="110"/>
  <line fill="none" stroke="#000000" stroke-width="2" x1="400" y1="335" x2="400" y2="430"/>
  <line fill="none" stroke="#000000" stroke-width="2" x1="815" y1="260" x2="830" y2="260"/>
  <line fill="none" stroke="#000000" stroke-width="2" x1="235" y1="330" x2="235" y2="430"/>
  <line fill="none" stroke="#000000" stroke-width="2" x1="1295" y1="345" x2="1295" y2="430"/>
  <line fill="none" stroke="#000000" stroke-width="2" x1="1200" y1="310" x2="830" y2="310"/>
  <line fill="none" stroke="#000000" stroke-width="2" x1="815" y1="110" x2="815" y2="180"/>
  <line fill="none" stroke="#000000" stroke-width="2" x1="400" y1="180" x2="400" y2="275"/>
  <line fill="none" stroke="#000000" stroke-width="2" x1="645" y1="395" x2="645" y2="430"/>
  <line fill="none" stroke="#000000" stroke-width="2" x1="655" y1="260" x2="645" y2="260"/>
  <line fill="none" stroke="#000000" stroke-width="2" x1="655" y1="230" x2="655" y2="240"/>
  <line fill="none" stroke="#000000" stroke-width="2" x1="925" y1="190" x2="925" y2="210"/>
  <line fill="none" stroke="#000000" stroke-width="2" x1="830" y1="260" x2="830" y2="310"/>
  <line fill="none" stroke="#000000" stroke-width="2" x1="655" y1="190" x2="655" y2="180"/>
  <line fill="none" stroke="#000000" stroke-width="2" x1="645" y1="260" x2="645" y2="335"/>
  <line fill="none" stroke="#000000" stroke-width="2" x1="1375" y1="345" x2="1375" y2="430"/>
  <line fill="none" stroke="#000000" stroke-width="2" x1="615" y1="230" x2="655" y2="230"/>
  <line fill="none" stroke="#000000" stroke-width="2" x1="155" y1="335" x2="155" y2="430"/>
  <line fill="none" stroke="#000000" stroke-width="2" x1="100" y1="180" x2="655" y2="180"/>
  <line fill="none" stroke="#000000" stroke-width="2" x1="155" y1="275" x2="155" y2="180"/>
  <line fill="none" stroke="#000000" stroke-width="2" x1="1295" y1="285" x2="1295" y2="210"/>
  <line fill="none" stroke="#000000" stroke-width="2" x1="235" y1="270" x2="235" y2="180"/>
  <line fill="none" stroke="#000000" stroke-width="2" x1="815" y1="210" x2="1045" y2="210"/>
  <line fill="none" stroke="#000000" stroke-width="2" x1="100" y1="180" x2="130" y2="180"/>
  <line fill="none" stroke="#000000" stroke-width="2" x1="155" y1="250" x2="155" y2="220"/>
  <line fill="none" stroke="#000000" stroke-width="2" x1="1295" y1="260" x2="1295" y2="230"/>
  <line fill="none" stroke="#000000" stroke-width="2" x1="235" y1="250" x2="235" y2="220"/>
  <line fill="none" stroke="#000000" stroke-width="2" x1="825" y1="210" x2="855" y2="210"/>
  <line fill="none" stroke="#000000" stroke-width="2" x1="100" y1="180" x2="130" y2="180"/>
  <line fill="none" stroke="#000000" stroke-width="2" x1="155" y1="250" x2="155" y2="220"/>
  <line fill="none" stroke="#000000" stroke-width="2" x1="1295" y1="260" x2="1295" y2="230"/>
  <line fill="none" stroke="#000000" stroke-width="2" x1="235" y1="250" x2="235" y2="220"/>
  <line fill="none" stroke="#000000" stroke-width="2" x1="825" y1="210" x2="855" y2="210"/>
  <line fill="none" stroke="#000000" stroke-width="2" x1="100" y1="180" x2="130" y2="180"/>
  <line fill="none" stroke="#000000" stroke-width="2" x1="155" y1="250" x2="155" y2="220"/>
  <line fill="none" stroke="#000000" stroke-width="2" x1="1295" y1="260" x2="1295" y2="230"/>
  <line fill="none" stroke="#000000" stroke-width="2" x1="235" y1="250" x2="235" y2="220"/>
  <line fill="none" stroke="#000000" stroke-width="2" x1="825" y1="210" x2="855" y2="210"/>
  <line fill="none" stroke="#000000" stroke-width="2" x1="100" y1="180" x2="130" y2="180"/>
  <line fill="none" stroke="#000000" stroke-width="2" x1="155" y1="250" x2="155" y2="220"/>
  <line fill="none" stroke="#000000" stroke-width="2" x1="1105" y1="210" x2="1595" y2="210"/>
  <line fill="none" stroke="#000000" stroke-width="2" x1="1295" y1="260" x2="1295" y2="230"/>
  <line fill="none" stroke="#000000" stroke-width="2" x1="235" y1="250" x2="235" y2="220"/>
  <line fill="none" stroke="#000000" stroke-width="2" x1="825" y1="210" x2="855" y2="210"/>
  <line fill="none" stroke="#000000" stroke-width="2" x1="100" y1="430" x2="1595" y2="430"/>
  <line fill="none" stroke="#000000" stroke-width="2" x1="1595" y1="320" x2="1595" y2="210"/>
  <line fill="none" stroke="#000000" stroke-width="2" x1="1595" y1="430" x2="1595" y2="380"/>
  <line fill="none" stroke="#000000" stroke-width="2" x1="100" y1="250" x2="100" y2="180"/>
  <line fill="none" stroke="#000000" stroke-width="2" x1="100" y1="430" x2="100" y2="310"/>
  <line fill="none" stroke="#000000" stroke-width="2" x1="100" y1="420" x2="100" y2="410"/>
  <circle fill="#000000" stroke="#000000" stroke-width="0" cx="1200" cy="310" r="5"/>
  <circle fill="#000000" stroke="#000000" stroke-width="0" cx="1110" cy="310" r="5"/>
  <circle fill="#000000" stroke="#000000" stroke-width="0" cx="645" cy="330" r="5"/>
  <circle fill="#000000" stroke="#000000" stroke-width="0" cx="640" cy="180" r="5"/>
  <circle fill="#000000" stroke="#000000" stroke-width="0" cx="320" cy="180" r="5"/>
  <circle fill="#000000" stroke="#000000" stroke-width="0" cx="400" cy="180" r="5"/>
  <circle fill="#000000" stroke="#000000" stroke-width="0" cx="155" cy="180" r="5"/>
  <circle fill="#000000" stroke="#000000" stroke-width="0" cx="235" cy="180" r="5"/>
  <circle fill="#000000" stroke="#000000" stroke-width="0" cx="925" cy="210" r="5"/>
  <circle fill="#000000" stroke="#000000" stroke-width="0" cx="1200" cy="210" r="5"/>
  <circle fill="#000000" stroke="#000000" stroke-width="0" cx="1110" cy="210" r="5"/>
  <circle fill="#000000" stroke="#000000" stroke-width="0" cx="1375" cy="210" r="5"/>
  <circle fill="#000000" stroke="#000000" stroke-width="0" cx="1295" cy="210" r="5"/>
  <circle fill="#000000" stroke="#000000" stroke-width="0" cx="1200" cy="430" r="5"/>
  <circle fill="#000000" stroke="#000000" stroke-width="0" cx="815" cy="430" r="5"/>
  <circle fill="#000000" stroke="#000000" stroke-width="0" cx="320" cy="430" r="5"/>
  <circle fill="#000000" stroke="#000000" stroke-width="0" cx="615" cy="430" r="5"/>
  <circle fill="#000000" stroke="#000000" stroke-width="0" cx="400" cy="430" r="5"/>
  <circle fill="#000000" stroke="#000000" stroke-width="0" cx="235" cy="430" r="5"/>
  <circle fill="#000000" stroke="#000000" stroke-width="0" cx="1295" cy="430" r="5"/>
  <circle fill="#000000" stroke="#000000" stroke-width="0" cx="645" cy="430" r="5"/>
  <circle fill="#000000" stroke="#000000" stroke-width="0" cx="1375" cy="430" r="5"/>
  <circle fill="#000000" stroke="#000000" stroke-width="0" cx="155" cy="430" r="5"/>
  <circle fill="#000000" stroke="#000000" stroke-width="0" cx="725" cy="430" r="5"/>
</svg>